PathFileType	4	(X/Y/Z)	 s05c0401.trc
DataRate	CameraRate	NumFrames	NumMarkers	Units	OrigDataRate	OrigDataStartFrame	OrigNumFrames
200	200	4	50	mm	200	1001	2000
Frame#	Time	racr			lacr			c7			jug			rlel			rdr			llel			ldr			s2			lic			ric			lasi			rasi			rpsi			lpsi			rgt			lgt			rth1			rth2			rth3			rth4			rlfc			rmfc			rsh1			rsh2			rsh3			rsh4			rlmal			rmmal			rcal			rtoe			rmt5			lth1			lth2			lth4			lth3			llfc			lmfc			lsh1			lsh2			lsh3			lsh4			llmal			lmmal			lcal			ltoe			lmt5			SBIKE			LBIKE			RBIKE			
		X1	Y1	Z1	X2	Y2	Z2	X3	Y3	Z3	X4	Y4	Z4	X5	Y5	Z5	X6	Y6	Z6	X7	Y7	Z7	X8	Y8	Z8	X9	Y9	Z9	X10	Y10	Z10	X11	Y11	Z11	X12	Y12	Z12	X13	Y13	Z13	X14	Y14	Z14	X15	Y15	Z15	X16	Y16	Z16	X17	Y17	Z17	X18	Y18	Z18	X19	Y19	Z19	X20	Y20	Z20	X21	Y21	Z21	X22	Y22	Z22	X23	Y23	Z23	X24	Y24	Z24	X25	Y25	Z25	X26	Y26	Z26	X27	Y27	Z27	X28	Y28	Z28	X29	Y29	Z29	X30	Y30	Z30	X31	Y31	Z31	X32	Y32	Z32	X33	Y33	Z33	X34	Y34	Z34	X35	Y35	Z35	X36	Y36	Z36	X37	Y37	Z37	X38	Y38	Z38	X39	Y39	Z39	X40	Y40	Z40	X41	Y41	Z41	X42	Y42	Z42	X43	Y43	Z43	X44	Y44	Z44	X45	Y45	Z45	X46	Y46	Z46	X47	Y47	Z47	X48	Y48	Z48	X49	Y49	Z49	X50	Y50	Z50	
1001	5.0050	798.209840	1300.642753	-141.978988	771.031557	1314.352807	-461.155787	786.214664	1402.509223	-314.089627	733.001057	1238.237605	-303.659635	599.542081	1158.809967	41.641670	688.368337	960.472496	-32.088525	526.260969	1154.886243	-578.551498	675.952283	973.092307	-488.378655	204.304309	1281.756614	-227.442652	335.908628	1264.998540	-381.161811	363.738159	1262.779955	-97.490204	377.274786	1201.212312	-351.926510	378.231620	1193.391759	-129.993537	253.665313	1317.639678	-188.019077	250.870173	1320.322170	-272.039120	279.878918	1136.197204	-70.949084	255.337106	1180.641366	-405.938292	334.431867	1030.358975	-65.458044	388.887647	960.164873	-70.245653	399.629339	872.924787	-74.689160	420.289750	974.835074	-82.888946	441.652572	730.391631	-100.638598	427.015337	736.819806	-209.311005	344.351834	688.409245	-71.655626	281.921240	626.882387	-86.137265	200.057554	601.074602	-87.310330	297.740377	606.055729	-114.865244	86.113883	530.034540	-98.694382	114.661903	539.673716	-180.868237	22.111683	573.080828	-144.029826	147.995617	304.906319	-155.210713	79.274867	378.221188	-86.049998	316.587054	1049.371672	-427.714807	378.011234	989.772632	-423.810006	409.606530	1006.481514	-410.373441	400.304187	901.949301	-422.388280	457.937922	767.093899	-394.093147	439.651013	752.780820	-288.113546	389.017324	658.453077	-426.454219	375.623624	572.285951	-418.046163	320.116047	502.945594	-420.988760	403.869361	561.665636	-394.083267	276.289567	387.897194	-419.306265	303.235460	400.802343	-342.263923	207.538531	364.874173	-378.873135	481.369748	255.672698	-394.972292	369.386804	267.216347	-455.817449	-214.259675	916.042835	-268.706312	-43.569529	84.940880	-475.148391	-51.871377	80.222942	-77.562489	
1002	5.0100	798.218698	1301.913383	-140.490529	771.460877	1315.273902	-460.096717	786.359457	1403.352948	-312.656834	733.514711	1239.138575	-302.586920	599.027960	1158.774655	41.816854	688.514176	960.502953	-31.524526	526.715912	1155.128995	-577.568384	676.155606	972.892023	-488.103824	203.995507	1280.161796	-229.063127	336.860720	1262.536776	-382.799945	362.768695	1263.446297	-98.758045	377.949476	1198.688230	-352.596663	377.870154	1193.876081	-130.586946	252.903196	1316.783319	-190.017859	250.652136	1318.482996	-274.610160	281.115465	1136.669646	-70.989159	255.153942	1177.328198	-406.293346	338.312867	1031.895320	-65.731144	394.425776	963.292004	-70.434252	406.754414	876.084944	-74.723765	425.313357	978.219215	-83.344017	450.776889	734.634851	-100.535228	435.307939	740.768732	-208.904312	352.630974	693.846702	-71.517197	289.259560	633.209193	-86.157811	207.076014	608.615836	-87.315833	304.972146	612.061623	-114.634355	92.389750	539.586608	-98.574901	121.139002	548.898192	-180.788754	28.939753	583.417864	-143.984900	151.728713	313.913566	-155.187276	83.835268	388.074399	-86.046595	314.539443	1044.996678	-427.609156	374.318171	983.835503	-423.176555	406.337203	999.804505	-409.969123	394.395829	895.414402	-421.459538	449.143065	760.162280	-392.751152	429.871981	746.019663	-287.174382	381.598361	650.564240	-425.757359	369.643775	564.298624	-417.456578	315.403885	494.003051	-420.871848	397.753468	554.215720	-393.111111	273.286975	378.756612	-419.201324	300.290361	392.261081	-342.466201	204.553454	356.449117	-379.035319	477.443409	244.435409	-394.958677	365.654809	257.292719	-455.794284	-214.284288	916.010186	-268.780243	-43.568774	84.923099	-475.147697	-51.879432	80.207816	-77.559141	
1003	5.0150	798.299847	1303.179839	-138.956910	771.995224	1316.504832	-458.873091	786.434108	1404.141392	-311.120790	733.958518	1240.029188	-301.342745	598.542086	1158.890095	42.195791	688.665519	960.619028	-31.065668	527.501917	1155.538605	-576.508223	676.399696	972.671422	-487.871340	203.716926	1278.477072	-230.967033	337.852985	1259.902025	-383.579498	361.715078	1263.986075	-100.049967	378.669058	1196.223913	-353.106577	377.478090	1194.254724	-131.112046	252.107104	1315.775748	-192.233099	250.644389	1316.465979	-276.992537	282.104070	1137.142043	-71.235293	255.229803	1173.921467	-406.777275	342.158132	1033.617278	-65.931023	399.834041	966.167275	-70.485823	414.869372	879.094299	-74.709163	430.336293	982.018898	-83.512016	460.224165	739.128822	-100.502224	444.474686	744.738887	-208.760701	360.918624	699.541143	-71.557829	297.065419	639.643586	-86.319201	214.659934	616.131202	-87.736404	312.709361	618.335904	-114.575804	99.305284	548.979732	-98.565290	128.204116	557.830448	-180.774454	36.597784	593.701236	-144.219462	156.170380	322.587979	-155.130275	89.129811	397.594364	-86.072822	312.600772	1040.488806	-427.678362	370.719061	977.818464	-422.740573	403.097479	992.990392	-409.545087	388.414885	888.871680	-420.689884	439.857485	753.207168	-391.800013	419.411090	739.224155	-286.629258	373.944518	642.666848	-425.444124	363.321621	556.325713	-417.020767	310.270446	485.040807	-420.873964	391.237516	546.737053	-392.230050	269.717912	369.955809	-419.249393	296.946946	384.280198	-342.719458	201.116310	348.315765	-379.221132	472.900746	233.490382	-394.932541	361.337824	247.671442	-455.791562	-214.298739	915.996272	-268.887788	-43.565948	84.891152	-475.162341	-51.873145	80.217482	-77.589831	
1004	5.0200	798.339030	1304.354606	-137.356763	772.556333	1317.909489	-457.451763	786.464773	1405.128784	-309.427470	734.374762	1241.159005	-299.950319	597.964581	1159.011404	42.861262	688.790570	960.833741	-30.697666	528.352698	1156.032777	-575.443982	676.708421	972.478941	-487.724405	203.410778	1276.653823	-233.000048	339.014793	1257.232709	-384.826512	360.674725	1264.593449	-101.362984	379.616221	1193.650341	-353.611743	377.013399	1194.719505	-131.677642	251.301315	1314.542860	-194.373818	250.841781	1314.236352	-279.987451	283.035064	1137.638146	-71.493835	255.503308	1170.522089	-407.262709	345.694805	1035.398979	-66.023973	405.142821	969.299674	-70.200170	422.465946	882.745917	-74.268861	435.341400	985.960297	-83.174995	469.914464	744.056294	-100.431425	454.005418	749.353500	-208.480533	370.052057	705.134432	-71.668634	305.431585	646.146826	-86.531478	222.728109	623.635040	-88.270198	320.959305	624.676245	-114.639510	106.849473	557.969117	-98.655962	135.715267	566.563609	-180.993866	44.237854	603.146096	-144.159579	161.098545	330.926729	-155.130368	95.080418	406.634176	-86.099918	310.891070	1036.002757	-427.913905	367.080610	971.866887	-422.434535	399.803516	986.047469	-409.268176	382.311361	882.442649	-420.119123	430.505171	746.126323	-390.861542	408.671257	732.477169	-286.333143	366.065258	634.845069	-425.215143	356.669232	548.354475	-416.796035	304.760722	476.330603	-421.108565	384.329651	539.332257	-391.440825	265.562532	361.471973	-419.422324	293.230141	376.853665	-343.019861	197.093578	340.563846	-379.564150	467.818434	222.891000	-394.949819	356.432606	238.292330	-455.820861	-214.293511	915.988642	-268.959050	-43.572724	84.889888	-475.194443	-51.878427	80.240962	-77.584862	
